<mxfile host="app.diagrams.net" modified="2024-06-24T00:08:53.503Z" agent="Mozilla/5.0 (Windows NT 10.0; Win64; x64) AppleWebKit/537.36 (KHTML, like Gecko) Chrome/126.0.0.0 Safari/537.36" version="24.6.2" etag="2qbUSOiCd_sEDO8CaO45" type="github">
  <diagram name="ページ1" id="L9RxabXtw_hPBmH_H49z">
    <mxGraphModel>
      <root>
        <mxCell id="0" />
        <mxCell id="1" parent="0" />
      </root>
    </mxGraphModel>
  </diagram>
</mxfile>
